<svg xmlns="http://www.w3.org/2000/svg" viewBox="0 0 400 160" width="100%" height="150">
  <rect width="400" height="160" fill="#0f172a" rx="16"/>
  <!-- Input A -->
  <text x="30" y="55" fill="#f8fafc" font-family="sans-serif" font-weight="bold" font-size="15">A</text>
  <line x1="50" y1="50" x2="80" y2="50" stroke="#94a3b8" stroke-width="2.5"/>
  <!-- NOT gate 1 -->
  <polygon points="80,35 120,50 80,65" fill="#1e293b" stroke="#38bdf8" stroke-width="2.5"/>
  <circle cx="125" cy="50" r="4" fill="#0f172a" stroke="#38bdf8" stroke-width="2"/>
  <line x1="130" y1="50" x2="200" y2="50" stroke="#94a3b8" stroke-width="2.5"/>

  <!-- Input B -->
  <text x="30" y="115" fill="#f8fafc" font-family="sans-serif" font-weight="bold" font-size="15">B</text>
  <line x1="50" y1="110" x2="80" y2="110" stroke="#94a3b8" stroke-width="2.5"/>
  <!-- NOT gate 2 -->
  <polygon points="80,95 120,110 80,125" fill="#1e293b" stroke="#38bdf8" stroke-width="2.5"/>
  <circle cx="125" cy="110" r="4" fill="#0f172a" stroke="#38bdf8" stroke-width="2"/>
  <line x1="130" y1="110" x2="200" y2="110" stroke="#94a3b8" stroke-width="2.5"/>

  <!-- NAND gate -->
  <path d="M200 35 L230 35 Q270 80 230 125 L200 125 Z" fill="#1e293b" stroke="#a855f7" stroke-width="2.5"/>
  <circle cx="265" cy="80" r="5" fill="#0f172a" stroke="#a855f7" stroke-width="2"/>
  <line x1="270" y1="80" x2="330" y2="80" stroke="#94a3b8" stroke-width="2.5"/>
  <text x="345" y="85" fill="#10b981" font-family="sans-serif" font-weight="bold" font-size="16">Y</text>
</svg>